<?xml version="1.0" encoding="utf-8"?>
<!-- Generator: Adobe Illustrator 27.0.0, SVG Export Plug-In . SVG Version: 6.00 Build 0)  -->
<svg version="1.1" xmlns="http://www.w3.org/2000/svg" xmlns:xlink="http://www.w3.org/1999/xlink" x="0px" y="0px"
	 viewBox="0 0 750 500" style="enable-background:new 0 0 750 500;" xml:space="preserve">
<style type="text/css">
	.st0{display:none;}
	.st1{display:inline;fill:#000031;}
	.st2{fill:#FF003C;}
	.st3{fill:none;stroke:#FF003C;stroke-miterlimit:10;}
	.st4{fill:#093EFF;}
	.st5{fill:none;stroke:#093EFF;stroke-miterlimit:10;}
</style>
<g id="BACKGROUND" class="st0">
	<rect class="st1" width="750" height="500"/>
</g>
<g id="OBJECTS">
	<g>
		
			<rect x="181" y="387.5" transform="matrix(-1 -1.224647e-16 1.224647e-16 -1 384.9838 797.9612)" class="st2" width="23" height="23"/>
		
			<rect x="164.5" y="61.6" transform="matrix(-1 -1.224647e-16 1.224647e-16 -1 343.3125 137.5488)" class="st2" width="14.4" height="14.4"/>
		
			<rect x="157.3" y="68.8" transform="matrix(-1 -1.224647e-16 1.224647e-16 -1 328.9375 151.9238)" class="st2" width="14.4" height="14.4"/>
		
			<rect x="364.3" y="465.1" transform="matrix(-1 -1.224647e-16 1.224647e-16 -1 733.6649 935.3525)" class="st2" width="5.1" height="5.1"/>
		
			<rect x="409.2" y="245.1" transform="matrix(-1 -1.224647e-16 1.224647e-16 -1 823.5551 495.4301)" class="st2" width="5.1" height="5.1"/>
		
			<rect x="270.9" y="371.3" transform="matrix(-1 -1.224647e-16 1.224647e-16 -1 546.9063 747.8125)" class="st2" width="5.1" height="5.1"/>
		
			<rect x="593.3" y="410.5" transform="matrix(-1 -1.224647e-16 1.224647e-16 -1 1209.6875 843.9612)" class="st2" width="23" height="23"/>
		
			<rect x="454.3" y="215.4" transform="matrix(-1 -1.224647e-16 1.224647e-16 -1 920.1874 442.3126)" class="st2" width="11.5" height="11.5"/>
		
			<rect x="179.6" y="319.2" transform="matrix(-1 -1.224647e-16 1.224647e-16 -1 370.6875 649.8126)" class="st2" width="11.5" height="11.5"/>
		
			<rect x="267.7" y="334.4" transform="matrix(-1 -1.224647e-16 1.224647e-16 -1 546.9062 680.3126)" class="st2" width="11.5" height="11.5"/>
		
			<rect x="309.6" y="446" transform="matrix(-1 -1.224647e-16 1.224647e-16 -1 630.6875 903.4376)" class="st2" width="11.5" height="11.5"/>
		
			<rect x="475.6" y="378.4" transform="matrix(-1 -1.224647e-16 1.224647e-16 -1 962.6875 768.3124)" class="st2" width="11.5" height="11.5"/>
		
			<rect x="336.6" y="186.2" transform="matrix(-1 -1.224647e-16 1.224647e-16 -1 684.6875 383.8126)" class="st2" width="11.5" height="11.5"/>
		
			<rect x="330.8" y="180.4" transform="matrix(-1 -1.224647e-16 1.224647e-16 -1 673.1875 372.3126)" class="st2" width="11.5" height="11.5"/>
		
			<rect x="677.1" y="41.9" transform="matrix(-1 -1.224647e-16 1.224647e-16 -1 1365.6874 95.3126)" class="st2" width="11.5" height="11.5"/>
		
			<rect x="677.1" y="24.9" transform="matrix(-1 -1.224647e-16 1.224647e-16 -1 1365.6874 61.3126)" class="st2" width="11.5" height="11.5"/>
		
			<rect x="355.5" y="357.9" transform="matrix(-1 -1.224647e-16 1.224647e-16 -1 742.9075 747.8125)" class="st3" width="32" height="32"/>
		
			<rect x="105.5" y="446" transform="matrix(-1 -1.224647e-16 1.224647e-16 -1 232.8749 913.875)" class="st3" width="21.9" height="21.9"/>
		
			<rect x="144.9" y="239.2" transform="matrix(-1 -1.224647e-16 1.224647e-16 -1 311.7663 500.2813)" class="st3" width="21.9" height="21.9"/>
		
			<rect x="531" y="136.9" transform="matrix(-1 -1.224647e-16 1.224647e-16 -1 1083.9213 295.6637)" class="st3" width="21.9" height="21.9"/>
		
			<rect x="552.9" y="20.7" transform="matrix(-1 -1.224647e-16 1.224647e-16 -1 1116.0774 51.61)" class="st3" width="10.3" height="10.3"/>
		
			<rect x="454.9" y="58.9" transform="matrix(-1 -1.224647e-16 1.224647e-16 -1 919.9687 128.0313)" class="st3" width="10.2" height="10.2"/>
		
			<rect x="588.2" y="210.9" transform="matrix(-1 -1.224647e-16 1.224647e-16 -1 1186.6875 432.0938)" class="st3" width="10.2" height="10.2"/>
		
			<rect x="530.3" y="286.9" transform="matrix(-1 -1.224647e-16 1.224647e-16 -1 1070.9062 584.0625)" class="st3" width="10.2" height="10.2"/>
		
			<rect x="382.3" y="31.3" transform="matrix(-1 -1.224647e-16 1.224647e-16 -1 774.9075 72.8125)" class="st3" width="10.2" height="10.2"/>
		
			<rect x="74.3" y="371.4" transform="matrix(-1 -1.224647e-16 1.224647e-16 -1 158.9062 752.945)" class="st3" width="10.2" height="10.2"/>
		
			<rect x="268.3" y="216" transform="matrix(-1 -1.224647e-16 1.224647e-16 -1 546.9063 442.3125)" class="st3" width="10.2" height="10.2"/>
		
			<rect x="218.8" y="126.4" transform="matrix(-1 -1.224647e-16 1.224647e-16 -1 456.6874 271.8125)" class="st3" width="19" height="19"/>
		
			<rect x="642.8" y="239.3" transform="matrix(-1 -1.224647e-16 1.224647e-16 -1 1304.5448 497.5938)" class="st3" width="19" height="19"/>
		
			<rect x="526" y="147.8" transform="matrix(-1 -1.224647e-16 1.224647e-16 -1 1070.9061 314.61)" class="st3" width="19" height="19"/>
		
			<rect x="378" y="116.9" transform="matrix(-1 -1.224647e-16 1.224647e-16 -1 774.9074 252.8125)" class="st3" width="19" height="19"/>
		
			<rect x="575.1" y="87.9" transform="matrix(-1 -1.224647e-16 1.224647e-16 -1 1155.9376 181.5626)" class="st2" width="5.8" height="5.8"/>
		
			<rect x="475.6" y="316.3" transform="matrix(-1 -1.224647e-16 1.224647e-16 -1 956.9375 638.3126)" class="st2" width="5.8" height="5.8"/>
		
			<rect x="161.6" y="22" transform="matrix(-1 -1.224647e-16 1.224647e-16 -1 328.9375 49.8126)" class="st2" width="5.8" height="5.8"/>
		
			<rect x="719.5" y="247.1" transform="matrix(-1 -1.224647e-16 1.224647e-16 -1 1444.6875 500)" class="st2" width="5.8" height="5.8"/>
		
			<rect x="52" y="165.7" transform="matrix(-1 -1.224647e-16 1.224647e-16 -1 128.6888 355.9612)" class="st2" width="24.6" height="24.6"/>
		
			<rect x="310.2" y="20.7" transform="matrix(-1 -1.224647e-16 1.224647e-16 -1 644.9838 66)" class="st2" width="24.6" height="24.6"/>
		
			<rect x="680" y="141.7" transform="matrix(-1 -1.224647e-16 1.224647e-16 -1 1376.1249 299.375)" class="st2" width="16.1" height="16.1"/>
		
			<rect x="293.5" y="66.2" transform="matrix(-1 -1.224647e-16 1.224647e-16 -1 592.6875 138.25)" class="st2" width="5.8" height="5.8"/>
		
			<rect x="93.2" y="292" transform="matrix(-1 -1.224647e-16 1.224647e-16 -1 192.0624 589.8126)" class="st2" width="5.8" height="5.8"/>
		
			<rect x="722.3" y="28.1" transform="matrix(-1 -1.224647e-16 1.224647e-16 -1 1450.4376 62.0476)" class="st2" width="5.8" height="5.8"/>
		
			<rect x="207.3" y="418.1" transform="matrix(-1 -1.224647e-16 1.224647e-16 -1 437.6874 859.235)" class="st4" width="23" height="23"/>
		
			<rect x="74.6" y="31.6" transform="matrix(-1 -1.224647e-16 1.224647e-16 -1 163.5325 77.5)" class="st4" width="14.4" height="14.4"/>
		
			<rect x="156.9" y="109.7" transform="matrix(-1 -1.224647e-16 1.224647e-16 -1 328.1112 233.8126)" class="st4" width="14.4" height="14.4"/>
		
			<rect x="361.5" y="470" transform="matrix(-1 -1.224647e-16 1.224647e-16 -1 728.0725 945.0549)" class="st4" width="5.1" height="5.1"/>
		
			<rect x="406.4" y="240.3" transform="matrix(-1 -1.224647e-16 1.224647e-16 -1 817.9625 485.7275)" class="st4" width="5.1" height="5.1"/>
		
			<rect x="268.1" y="366.5" transform="matrix(-1 -1.224647e-16 1.224647e-16 -1 541.3137 738.1101)" class="st4" width="5.1" height="5.1"/>
		
			<rect x="524" y="446" transform="matrix(-1 -1.224647e-16 1.224647e-16 -1 1070.9061 914.9376)" class="st4" width="23" height="23"/>
		
			<rect x="451.5" y="210.6" transform="matrix(-1 -1.224647e-16 1.224647e-16 -1 914.595 432.61)" class="st4" width="11.5" height="11.5"/>
		
			<rect x="176.8" y="314.3" transform="matrix(-1 -1.224647e-16 1.224647e-16 -1 365.095 640.11)" class="st4" width="11.5" height="11.5"/>
		
			<rect x="264.9" y="312.7" transform="matrix(-1 -1.224647e-16 1.224647e-16 -1 541.3138 636.8126)" class="st4" width="11.5" height="11.5"/>
		
			<rect x="306.8" y="441.1" transform="matrix(-1 -1.224647e-16 1.224647e-16 -1 625.095 893.735)" class="st4" width="11.5" height="11.5"/>
		
			<rect x="472.8" y="373.6" transform="matrix(-1 -1.224647e-16 1.224647e-16 -1 957.095 758.61)" class="st4" width="11.5" height="11.5"/>
		
			<rect x="311" y="271.2" transform="matrix(-1 -1.224647e-16 1.224647e-16 -1 633.4838 553.9076)" class="st4" width="11.5" height="11.5"/>
		
			<rect x="316.7" y="167.4" transform="matrix(-1 -1.224647e-16 1.224647e-16 -1 644.9838 346.2588)" class="st4" width="11.5" height="11.5"/>
		
			<rect x="365.7" y="206.2" transform="matrix(-1 -1.224647e-16 1.224647e-16 -1 742.9076 423.8288)" class="st4" width="11.5" height="11.5"/>
		
			<rect x="674.3" y="37.1" transform="matrix(-1 -1.224647e-16 1.224647e-16 -1 1360.095 85.61)" class="st4" width="11.5" height="11.5"/>
		
			<rect x="674.3" y="20.1" transform="matrix(-1 -1.224647e-16 1.224647e-16 -1 1360.095 51.61)" class="st4" width="11.5" height="11.5"/>
		
			<rect x="378.2" y="318.4" transform="matrix(-1 -1.224647e-16 1.224647e-16 -1 788.315 668.8125)" class="st5" width="32" height="32"/>
		
			<rect x="102.7" y="441.1" transform="matrix(-1 -1.224647e-16 1.224647e-16 -1 227.2825 904.1725)" class="st5" width="21.9" height="21.9"/>
		
			<rect x="142.1" y="195.2" transform="matrix(-1 -1.224647e-16 1.224647e-16 -1 306.1737 412.3287)" class="st5" width="21.9" height="21.9"/>
		
			<rect x="519.4" y="179.3" transform="matrix(-1 -1.224647e-16 1.224647e-16 -1 1060.6875 380.5863)" class="st5" width="21.9" height="21.9"/>
		
			<rect x="626.9" y="119.4" transform="matrix(-1 -1.224647e-16 1.224647e-16 -1 1264.0947 249.1012)" class="st5" width="10.3" height="10.3"/>
		
			<rect x="452.1" y="54.1" transform="matrix(-1 -1.224647e-16 1.224647e-16 -1 914.3762 118.3288)" class="st5" width="10.2" height="10.2"/>
		
			<rect x="585.4" y="206.1" transform="matrix(-1 -1.224647e-16 1.224647e-16 -1 1181.095 422.3913)" class="st5" width="10.2" height="10.2"/>
		
			<rect x="552.9" y="314" transform="matrix(-1 -1.224647e-16 1.224647e-16 -1 1116.0775 638.3125)" class="st5" width="10.2" height="10.2"/>
		
			<rect x="379.5" y="26.4" transform="matrix(-1 -1.224647e-16 1.224647e-16 -1 769.315 63.11)" class="st5" width="10.2" height="10.2"/>
		
			<rect x="71.5" y="366.5" transform="matrix(-1 -1.224647e-16 1.224647e-16 -1 153.3138 743.2425)" class="st5" width="10.2" height="10.2"/>
		
			<rect x="265.5" y="211.2" transform="matrix(-1 -1.224647e-16 1.224647e-16 -1 541.3137 432.61)" class="st5" width="10.2" height="10.2"/>
		
			<rect x="216" y="121.6" transform="matrix(-1 -1.224647e-16 1.224647e-16 -1 451.095 262.11)" class="st5" width="19" height="19"/>
		
			<rect x="640" y="234.4" transform="matrix(-1 -1.224647e-16 1.224647e-16 -1 1298.9521 487.8912)" class="st5" width="19" height="19"/>
		
			<rect x="463.3" y="211.9" transform="matrix(-1 -1.224647e-16 1.224647e-16 -1 945.595 442.8288)" class="st5" width="19" height="19"/>
		
			<rect x="630.5" y="367.2" transform="matrix(-1 -1.224647e-16 1.224647e-16 -1 1279.9521 753.4612)" class="st3" width="19" height="19"/>
		
			<rect x="674.9" y="346" transform="matrix(-1 -1.224647e-16 1.224647e-16 -1 1368.7988 710.9612)" class="st5" width="19" height="19"/>
		
			<rect x="375.2" y="76.4" transform="matrix(-1 -1.224647e-16 1.224647e-16 -1 769.315 171.86)" class="st5" width="19" height="19"/>
		
			<rect x="572.3" y="83.1" transform="matrix(-1 -1.224647e-16 1.224647e-16 -1 1150.345 171.86)" class="st4" width="5.8" height="5.8"/>
		
			<rect x="472.8" y="311.4" transform="matrix(-1 -1.224647e-16 1.224647e-16 -1 951.345 628.61)" class="st4" width="5.8" height="5.8"/>
		
			<rect x="158.8" y="465" transform="matrix(-1 -1.224647e-16 1.224647e-16 -1 323.345 935.8124)" class="st4" width="5.8" height="5.8"/>
		
			<rect x="716.7" y="252" transform="matrix(-1 -1.224647e-16 1.224647e-16 -1 1439.095 509.7024)" class="st4" width="5.8" height="5.8"/>
		
			<rect x="49.2" y="124.6" transform="matrix(-1 -1.224647e-16 1.224647e-16 -1 123.0962 273.7262)" class="st4" width="24.6" height="24.6"/>
		
			<rect x="472" y="107.1" transform="matrix(-1 -1.224647e-16 1.224647e-16 -1 968.595 238.8362)" class="st4" width="24.6" height="24.6"/>
		
			<rect x="677.2" y="136.8" transform="matrix(-1 -1.224647e-16 1.224647e-16 -1 1370.5325 289.6725)" class="st4" width="16.1" height="16.1"/>
		
			<rect x="290.7" y="61.4" transform="matrix(-1 -1.224647e-16 1.224647e-16 -1 587.095 128.5476)" class="st4" width="5.8" height="5.8"/>
		
			<rect x="90.4" y="287.2" transform="matrix(-1 -1.224647e-16 1.224647e-16 -1 186.47 580.11)" class="st4" width="5.8" height="5.8"/>
		
			<rect x="719.5" y="33" transform="matrix(-1 -1.224647e-16 1.224647e-16 -1 1444.845 71.75)" class="st4" width="5.8" height="5.8"/>
	</g>
</g>
</svg>
