<?xml version="1.0" encoding="utf-8"?>
<!-- Generator: Adobe Illustrator 27.0.0, SVG Export Plug-In . SVG Version: 6.00 Build 0)  -->
<svg version="1.1" xmlns="http://www.w3.org/2000/svg" xmlns:xlink="http://www.w3.org/1999/xlink" x="0px" y="0px"
	 viewBox="0 0 750 500" style="enable-background:new 0 0 750 500;" xml:space="preserve">
<style type="text/css">
	.st0{fill:#000031;}
	.st1{fill:#FF003C;}
	.st2{fill:none;stroke:#FF003C;stroke-miterlimit:10;}
	.st3{fill:#093EFF;}
	.st4{fill:none;stroke:#093EFF;stroke-miterlimit:10;}
</style>
<g id="BACKGROUND">
	<rect class="st0" width="750" height="500"/>
</g>
<g id="OBJECTS">
	<g>
		
			<rect x="180.99" y="387.48" transform="matrix(-1 -1.224647e-16 1.224647e-16 -1 384.9838 797.9612)" class="st1" width="23" height="23"/>
		
			<rect x="164.47" y="61.59" transform="matrix(-1 -1.224647e-16 1.224647e-16 -1 343.3125 137.5488)" class="st1" width="14.38" height="14.38"/>
		
			<rect x="157.28" y="68.77" transform="matrix(-1 -1.224647e-16 1.224647e-16 -1 328.9375 151.9238)" class="st1" width="14.38" height="14.38"/>
		
			<rect x="364.27" y="465.11" transform="matrix(-1 -1.224647e-16 1.224647e-16 -1 733.6649 935.3525)" class="st1" width="5.13" height="5.13"/>
		
			<rect x="409.21" y="245.15" transform="matrix(-1 -1.224647e-16 1.224647e-16 -1 823.5551 495.4301)" class="st1" width="5.13" height="5.13"/>
		
			<rect x="270.89" y="371.34" transform="matrix(-1 -1.224647e-16 1.224647e-16 -1 546.9063 747.8125)" class="st1" width="5.13" height="5.13"/>
		
			<rect x="593.34" y="410.48" transform="matrix(-1 -1.224647e-16 1.224647e-16 -1 1209.6875 843.9612)" class="st1" width="23" height="23"/>
		
			<rect x="454.34" y="215.41" transform="matrix(-1 -1.224647e-16 1.224647e-16 -1 920.1874 442.3126)" class="st1" width="11.5" height="11.5"/>
		
			<rect x="179.59" y="319.16" transform="matrix(-1 -1.224647e-16 1.224647e-16 -1 370.6875 649.8126)" class="st1" width="11.5" height="11.5"/>
		
			<rect x="267.7" y="334.41" transform="matrix(-1 -1.224647e-16 1.224647e-16 -1 546.9062 680.3126)" class="st1" width="11.5" height="11.5"/>
		
			<rect x="309.59" y="445.97" transform="matrix(-1 -1.224647e-16 1.224647e-16 -1 630.6875 903.4376)" class="st1" width="11.5" height="11.5"/>
		
			<rect x="475.59" y="378.41" transform="matrix(-1 -1.224647e-16 1.224647e-16 -1 962.6875 768.3124)" class="st1" width="11.5" height="11.5"/>
		
			<rect x="336.59" y="186.16" transform="matrix(-1 -1.224647e-16 1.224647e-16 -1 684.6875 383.8126)" class="st1" width="11.5" height="11.5"/>
		
			<rect x="330.84" y="180.41" transform="matrix(-1 -1.224647e-16 1.224647e-16 -1 673.1875 372.3126)" class="st1" width="11.5" height="11.5"/>
		
			<rect x="677.09" y="41.91" transform="matrix(-1 -1.224647e-16 1.224647e-16 -1 1365.6874 95.3126)" class="st1" width="11.5" height="11.5"/>
		
			<rect x="677.09" y="24.91" transform="matrix(-1 -1.224647e-16 1.224647e-16 -1 1365.6874 61.3126)" class="st1" width="11.5" height="11.5"/>
		
			<rect x="355.45" y="357.91" transform="matrix(-1 -1.224647e-16 1.224647e-16 -1 742.9075 747.8125)" class="st2" width="32" height="32"/>
		
			<rect x="105.47" y="445.97" transform="matrix(-1 -1.224647e-16 1.224647e-16 -1 232.8749 913.875)" class="st2" width="21.94" height="21.94"/>
		
			<rect x="144.91" y="239.17" transform="matrix(-1 -1.224647e-16 1.224647e-16 -1 311.7663 500.2813)" class="st2" width="21.94" height="21.94"/>
		
			<rect x="530.99" y="136.86" transform="matrix(-1 -1.224647e-16 1.224647e-16 -1 1083.9213 295.6637)" class="st2" width="21.94" height="21.94"/>
		
			<rect x="552.91" y="20.67" transform="matrix(-1 -1.224647e-16 1.224647e-16 -1 1116.0774 51.61)" class="st2" width="10.26" height="10.27"/>
		
			<rect x="454.88" y="58.91" transform="matrix(-1 -1.224647e-16 1.224647e-16 -1 919.9687 128.0313)" class="st2" width="10.22" height="10.22"/>
		
			<rect x="588.23" y="210.94" transform="matrix(-1 -1.224647e-16 1.224647e-16 -1 1186.6875 432.0938)" class="st2" width="10.22" height="10.22"/>
		
			<rect x="530.34" y="286.92" transform="matrix(-1 -1.224647e-16 1.224647e-16 -1 1070.9062 584.0625)" class="st2" width="10.22" height="10.22"/>
		
			<rect x="382.34" y="31.3" transform="matrix(-1 -1.224647e-16 1.224647e-16 -1 774.9075 72.8125)" class="st2" width="10.22" height="10.22"/>
		
			<rect x="74.34" y="371.36" transform="matrix(-1 -1.224647e-16 1.224647e-16 -1 158.9062 752.945)" class="st2" width="10.22" height="10.22"/>
		
			<rect x="268.34" y="216.05" transform="matrix(-1 -1.224647e-16 1.224647e-16 -1 546.9063 442.3125)" class="st2" width="10.22" height="10.22"/>
		
			<rect x="218.84" y="126.41" transform="matrix(-1 -1.224647e-16 1.224647e-16 -1 456.6874 271.8125)" class="st2" width="19" height="19"/>
		
			<rect x="642.77" y="239.3" transform="matrix(-1 -1.224647e-16 1.224647e-16 -1 1304.5448 497.5938)" class="st2" width="19" height="19"/>
		
			<rect x="525.95" y="147.8" transform="matrix(-1 -1.224647e-16 1.224647e-16 -1 1070.9061 314.61)" class="st2" width="19" height="19"/>
		
			<rect x="377.95" y="116.91" transform="matrix(-1 -1.224647e-16 1.224647e-16 -1 774.9074 252.8125)" class="st2" width="19" height="19"/>
		
			<rect x="575.09" y="87.91" transform="matrix(-1 -1.224647e-16 1.224647e-16 -1 1155.9376 181.5626)" class="st1" width="5.75" height="5.75"/>
		
			<rect x="475.59" y="316.28" transform="matrix(-1 -1.224647e-16 1.224647e-16 -1 956.9375 638.3126)" class="st1" width="5.75" height="5.75"/>
		
			<rect x="161.59" y="22.03" transform="matrix(-1 -1.224647e-16 1.224647e-16 -1 328.9375 49.8126)" class="st1" width="5.75" height="5.75"/>
		
			<rect x="719.47" y="247.12" transform="matrix(-1 -1.224647e-16 1.224647e-16 -1 1444.6875 500)" class="st1" width="5.75" height="5.75"/>
		
			<rect x="52.03" y="165.67" transform="matrix(-1 -1.224647e-16 1.224647e-16 -1 128.6888 355.9612)" class="st1" width="24.62" height="24.62"/>
		
			<rect x="310.18" y="20.69" transform="matrix(-1 -1.224647e-16 1.224647e-16 -1 644.9838 66)" class="st1" width="24.62" height="24.62"/>
		
			<rect x="680.03" y="141.66" transform="matrix(-1 -1.224647e-16 1.224647e-16 -1 1376.1249 299.375)" class="st1" width="16.06" height="16.06"/>
		
			<rect x="293.47" y="66.25" transform="matrix(-1 -1.224647e-16 1.224647e-16 -1 592.6875 138.25)" class="st1" width="5.75" height="5.75"/>
		
			<rect x="93.16" y="292.03" transform="matrix(-1 -1.224647e-16 1.224647e-16 -1 192.0624 589.8126)" class="st1" width="5.75" height="5.75"/>
		
			<rect x="722.34" y="28.15" transform="matrix(-1 -1.224647e-16 1.224647e-16 -1 1450.4376 62.0476)" class="st1" width="5.75" height="5.75"/>
		
			<rect x="207.34" y="418.12" transform="matrix(-1 -1.224647e-16 1.224647e-16 -1 437.6874 859.235)" class="st3" width="23" height="23"/>
		
			<rect x="74.58" y="31.56" transform="matrix(-1 -1.224647e-16 1.224647e-16 -1 163.5325 77.5)" class="st3" width="14.37" height="14.38"/>
		
			<rect x="156.87" y="109.72" transform="matrix(-1 -1.224647e-16 1.224647e-16 -1 328.1112 233.8126)" class="st3" width="14.38" height="14.38"/>
		
			<rect x="361.47" y="469.96" transform="matrix(-1 -1.224647e-16 1.224647e-16 -1 728.0725 945.0549)" class="st3" width="5.13" height="5.13"/>
		
			<rect x="406.42" y="240.3" transform="matrix(-1 -1.224647e-16 1.224647e-16 -1 817.9625 485.7275)" class="st3" width="5.13" height="5.13"/>
		
			<rect x="268.09" y="366.49" transform="matrix(-1 -1.224647e-16 1.224647e-16 -1 541.3137 738.1101)" class="st3" width="5.13" height="5.13"/>
		
			<rect x="523.95" y="445.97" transform="matrix(-1 -1.224647e-16 1.224647e-16 -1 1070.9061 914.9376)" class="st3" width="23" height="23"/>
		
			<rect x="451.55" y="210.55" transform="matrix(-1 -1.224647e-16 1.224647e-16 -1 914.595 432.61)" class="st3" width="11.5" height="11.5"/>
		
			<rect x="176.8" y="314.3" transform="matrix(-1 -1.224647e-16 1.224647e-16 -1 365.095 640.11)" class="st3" width="11.5" height="11.5"/>
		
			<rect x="264.91" y="312.66" transform="matrix(-1 -1.224647e-16 1.224647e-16 -1 541.3138 636.8126)" class="st3" width="11.5" height="11.5"/>
		
			<rect x="306.8" y="441.12" transform="matrix(-1 -1.224647e-16 1.224647e-16 -1 625.095 893.735)" class="st3" width="11.5" height="11.5"/>
		
			<rect x="472.8" y="373.55" transform="matrix(-1 -1.224647e-16 1.224647e-16 -1 957.095 758.61)" class="st3" width="11.5" height="11.5"/>
		
			<rect x="310.99" y="271.2" transform="matrix(-1 -1.224647e-16 1.224647e-16 -1 633.4838 553.9076)" class="st3" width="11.5" height="11.5"/>
		
			<rect x="316.74" y="167.38" transform="matrix(-1 -1.224647e-16 1.224647e-16 -1 644.9838 346.2588)" class="st3" width="11.5" height="11.5"/>
		
			<rect x="365.7" y="206.16" transform="matrix(-1 -1.224647e-16 1.224647e-16 -1 742.9076 423.8288)" class="st3" width="11.5" height="11.5"/>
		
			<rect x="674.3" y="37.06" transform="matrix(-1 -1.224647e-16 1.224647e-16 -1 1360.095 85.61)" class="st3" width="11.5" height="11.5"/>
		
			<rect x="674.3" y="20.06" transform="matrix(-1 -1.224647e-16 1.224647e-16 -1 1360.095 51.61)" class="st3" width="11.5" height="11.5"/>
		
			<rect x="378.16" y="318.41" transform="matrix(-1 -1.224647e-16 1.224647e-16 -1 788.315 668.8125)" class="st4" width="32" height="32"/>
		
			<rect x="102.67" y="441.12" transform="matrix(-1 -1.224647e-16 1.224647e-16 -1 227.2825 904.1725)" class="st4" width="21.94" height="21.94"/>
		
			<rect x="142.12" y="195.2" transform="matrix(-1 -1.224647e-16 1.224647e-16 -1 306.1737 412.3287)" class="st4" width="21.94" height="21.94"/>
		
			<rect x="519.38" y="179.32" transform="matrix(-1 -1.224647e-16 1.224647e-16 -1 1060.6875 380.5863)" class="st4" width="21.94" height="21.94"/>
		
			<rect x="626.91" y="119.42" transform="matrix(-1 -1.224647e-16 1.224647e-16 -1 1264.0947 249.1012)" class="st4" width="10.26" height="10.27"/>
		
			<rect x="452.08" y="54.06" transform="matrix(-1 -1.224647e-16 1.224647e-16 -1 914.3762 118.3288)" class="st4" width="10.22" height="10.22"/>
		
			<rect x="585.44" y="206.09" transform="matrix(-1 -1.224647e-16 1.224647e-16 -1 1181.095 422.3913)" class="st4" width="10.22" height="10.22"/>
		
			<rect x="552.93" y="314.05" transform="matrix(-1 -1.224647e-16 1.224647e-16 -1 1116.0775 638.3125)" class="st4" width="10.22" height="10.22"/>
		
			<rect x="379.55" y="26.45" transform="matrix(-1 -1.224647e-16 1.224647e-16 -1 769.315 63.11)" class="st4" width="10.22" height="10.22"/>
		
			<rect x="71.55" y="366.51" transform="matrix(-1 -1.224647e-16 1.224647e-16 -1 153.3138 743.2425)" class="st4" width="10.22" height="10.22"/>
		
			<rect x="265.55" y="211.2" transform="matrix(-1 -1.224647e-16 1.224647e-16 -1 541.3137 432.61)" class="st4" width="10.22" height="10.22"/>
		
			<rect x="216.05" y="121.56" transform="matrix(-1 -1.224647e-16 1.224647e-16 -1 451.095 262.11)" class="st4" width="19" height="19"/>
		
			<rect x="639.98" y="234.45" transform="matrix(-1 -1.224647e-16 1.224647e-16 -1 1298.9521 487.8912)" class="st4" width="19" height="19"/>
		
			<rect x="463.3" y="211.91" transform="matrix(-1 -1.224647e-16 1.224647e-16 -1 945.595 442.8288)" class="st4" width="19" height="19"/>
		
			<rect x="630.48" y="367.23" transform="matrix(-1 -1.224647e-16 1.224647e-16 -1 1279.9521 753.4612)" class="st2" width="19" height="19"/>
		
			<rect x="674.9" y="345.98" transform="matrix(-1 -1.224647e-16 1.224647e-16 -1 1368.7988 710.9612)" class="st4" width="19" height="19"/>
		
			<rect x="375.16" y="76.43" transform="matrix(-1 -1.224647e-16 1.224647e-16 -1 769.315 171.86)" class="st4" width="19" height="19"/>
		
			<rect x="572.3" y="83.06" transform="matrix(-1 -1.224647e-16 1.224647e-16 -1 1150.345 171.86)" class="st3" width="5.75" height="5.75"/>
		
			<rect x="472.8" y="311.43" transform="matrix(-1 -1.224647e-16 1.224647e-16 -1 951.345 628.61)" class="st3" width="5.75" height="5.75"/>
		
			<rect x="158.8" y="465.03" transform="matrix(-1 -1.224647e-16 1.224647e-16 -1 323.345 935.8124)" class="st3" width="5.75" height="5.75"/>
		
			<rect x="716.67" y="251.98" transform="matrix(-1 -1.224647e-16 1.224647e-16 -1 1439.095 509.7024)" class="st3" width="5.75" height="5.75"/>
		
			<rect x="49.24" y="124.55" transform="matrix(-1 -1.224647e-16 1.224647e-16 -1 123.0962 273.7262)" class="st3" width="24.63" height="24.62"/>
		
			<rect x="471.98" y="107.11" transform="matrix(-1 -1.224647e-16 1.224647e-16 -1 968.595 238.8362)" class="st3" width="24.62" height="24.62"/>
		
			<rect x="677.23" y="136.8" transform="matrix(-1 -1.224647e-16 1.224647e-16 -1 1370.5325 289.6725)" class="st3" width="16.06" height="16.06"/>
		
			<rect x="290.67" y="61.4" transform="matrix(-1 -1.224647e-16 1.224647e-16 -1 587.095 128.5476)" class="st3" width="5.75" height="5.75"/>
		
			<rect x="90.36" y="287.18" transform="matrix(-1 -1.224647e-16 1.224647e-16 -1 186.47 580.11)" class="st3" width="5.75" height="5.75"/>
		
			<rect x="719.55" y="33" transform="matrix(-1 -1.224647e-16 1.224647e-16 -1 1444.845 71.75)" class="st3" width="5.75" height="5.75"/>
	</g>
</g>
</svg>
